<?xml version="1.0" standalone="no"?>
<!DOCTYPE svg PUBLIC "-//W3C//DTD SVG 20010904//EN"
 "http://www.w3.org/TR/2001/REC-SVG-20010904/DTD/svg10.dtd">
<svg version="1.0" xmlns="http://www.w3.org/2000/svg"
 width="605.000000pt" height="605.000000pt" viewBox="0 0 605.000000 605.000000"
 preserveAspectRatio="xMidYMid meet">
<metadata>
Created by potrace 1.14, written by Peter Selinger 2001-2017
</metadata>
<g transform="translate(0.000000,605.000000) scale(0.100000,-0.100000)"
fill="#000000" stroke="none">
<path d="M2225 6020 c-4 -6 -11 -8 -16 -5 -5 4 -9 0 -9 -7 0 -9 -3 -9 -10 2
-9 13 -10 13 -10 0 0 -13 -1 -13 -10 0 -6 10 -10 11 -10 3 0 -7 -5 -13 -11
-13 -5 0 -7 6 -3 13 6 9 5 9 -8 0 -8 -7 -18 -10 -21 -6 -4 3 -7 2 -7 -4 0 -6
-7 -14 -16 -17 -15 -6 -15 -4 -3 11 7 10 0 7 -15 -7 -16 -14 -26 -19 -22 -12
4 6 2 12 -3 12 -6 0 -11 -5 -11 -11 0 -5 -4 -7 -10 -4 -5 3 -10 2 -10 -3 0 -6
-7 -13 -16 -16 -8 -3 -12 -2 -9 4 3 6 -1 7 -10 4 -9 -4 -13 -9 -11 -12 3 -3
-2 -11 -12 -18 -13 -9 -20 -10 -31 -1 -12 10 -13 9 -6 -2 6 -11 4 -13 -9 -8
-9 4 -15 3 -13 -1 7 -11 -17 -29 -35 -26 -11 1 -15 -3 -11 -12 3 -10 0 -12
-10 -9 -8 4 -17 -1 -21 -10 -3 -9 -11 -13 -17 -9 -8 4 -9 3 -5 -4 7 -11 -27
-36 -36 -26 -3 2 -11 -3 -19 -13 -12 -14 -12 -16 0 -8 10 6 12 4 7 -4 -5 -7
-14 -10 -22 -7 -9 3 -11 0 -7 -12 3 -9 3 -14 -1 -10 -10 9 -84 -59 -91 -84 -4
-10 -10 -16 -15 -13 -5 3 -12 0 -16 -6 -5 -8 -3 -9 6 -4 8 5 11 3 8 -6 -3 -8
-10 -14 -16 -14 -5 0 -14 -4 -19 -9 -5 -5 -3 -6 5 -2 16 10 15 -2 -2 -19 -7
-8 -17 -11 -20 -7 -4 3 -4 -1 0 -11 3 -10 1 -17 -5 -17 -6 0 -10 -6 -9 -12 2
-7 -2 -12 -9 -11 -6 1 -14 -4 -17 -13 -4 -10 -1 -13 7 -9 6 4 3 -1 -8 -10 -11
-9 -19 -19 -18 -23 0 -4 -3 -6 -9 -4 -5 1 -7 -2 -3 -8 6 -10 -31 -80 -41 -80
-3 0 -2 6 2 13 5 8 2 8 -9 -2 -18 -15 -23 -26 -7 -16 6 3 10 2 10 -4 0 -5 -8
-15 -17 -20 -10 -6 -13 -11 -8 -11 6 0 -1 -7 -15 -15 -15 -9 -19 -15 -10 -15
12 0 11 -4 -4 -15 -11 -8 -16 -15 -12 -15 4 0 -6 -12 -21 -26 -15 -14 -22 -23
-15 -19 21 11 13 -12 -10 -29 -13 -9 -17 -14 -10 -10 11 5 12 2 3 -14 -6 -12
-17 -24 -24 -28 -7 -5 -6 0 3 12 14 18 14 18 -3 5 -9 -8 -15 -16 -13 -19 9 -8
-14 -43 -24 -37 -6 3 -7 -1 -4 -9 4 -9 1 -16 -6 -16 -7 0 -10 -7 -6 -16 4 -12
2 -15 -9 -11 -8 4 -17 1 -21 -5 -4 -7 -3 -8 4 -4 7 4 12 3 12 -2 0 -6 -7 -13
-16 -16 -9 -3 -14 -12 -12 -18 3 -7 -6 -21 -19 -31 -13 -10 -23 -23 -23 -30 0
-6 7 -2 16 9 14 18 15 18 4 -3 -6 -13 -18 -23 -28 -23 -13 0 -14 -2 -4 -9 10
-6 9 -11 -4 -22 -15 -12 -17 -12 -9 0 5 9 4 12 -3 7 -6 -3 -9 -16 -7 -27 3
-15 0 -19 -10 -15 -10 3 -12 0 -8 -11 4 -10 2 -14 -4 -10 -7 5 -9 0 -6 -12 3
-10 -1 -22 -8 -26 -8 -6 -10 -4 -4 5 5 9 4 11 -4 6 -6 -4 -9 -12 -6 -17 4 -5
-7 -21 -22 -36 -15 -14 -22 -23 -15 -19 6 4 12 2 12 -3 0 -6 -4 -11 -9 -11 -5
0 -12 -11 -15 -24 -3 -14 -16 -28 -27 -31 -17 -6 -18 -9 -8 -16 11 -6 10 -9
-3 -14 -9 -4 -14 -13 -11 -21 3 -8 -4 -18 -18 -23 -13 -5 -18 -10 -11 -10 7
-1 10 -6 7 -11 -4 -6 -11 -8 -16 -5 -5 3 -6 -2 -2 -11 4 -11 2 -15 -4 -11 -6
4 -14 0 -17 -9 -4 -10 -2 -13 7 -9 6 4 4 0 -5 -8 -10 -8 -18 -21 -18 -30 0 -9
-8 -21 -19 -26 -10 -6 -21 -24 -24 -41 -4 -16 -13 -30 -21 -30 -9 0 -12 -7 -9
-20 3 -12 0 -20 -6 -20 -7 0 -9 6 -5 13 4 6 3 8 -1 4 -5 -4 -10 -15 -11 -23
-5 -30 -14 -45 -24 -39 -6 3 -7 -1 -4 -9 3 -9 1 -16 -6 -16 -6 0 -8 -4 -5 -10
3 -5 -2 -10 -12 -10 -15 0 -16 -2 -3 -10 13 -8 8 -14 -10 -12 -3 0 -7 -9 -7
-21 -1 -12 -10 -27 -19 -34 -10 -7 -14 -13 -9 -13 5 0 0 -7 -11 -16 -10 -8
-13 -12 -5 -8 9 5 12 3 7 -4 -4 -7 -15 -12 -24 -12 -15 0 -15 -2 -2 -10 13 -9
7 -14 -12 -11 -4 0 -4 -7 -1 -16 4 -11 -3 -24 -23 -41 -16 -13 -23 -21 -16
-17 11 6 12 3 3 -14 -7 -11 -14 -21 -17 -21 -3 0 -2 5 2 12 4 7 3 8 -4 4 -6
-4 -8 -14 -5 -23 4 -11 3 -14 -6 -9 -8 5 -12 3 -10 -5 3 -27 -1 -39 -15 -39
-8 0 -13 -8 -12 -17 0 -10 -4 -17 -11 -16 -6 1 -14 -4 -17 -13 -4 -9 -2 -12 5
-8 8 4 7 0 0 -15 -7 -11 -14 -21 -17 -21 -3 0 -2 6 2 13 4 7 3 9 -2 4 -5 -5
-10 -13 -10 -18 -1 -5 -2 -14 -3 -20 0 -5 -5 -8 -10 -4 -6 3 -8 -4 -6 -15 2
-13 -1 -20 -11 -20 -9 0 -14 -7 -12 -17 2 -10 -2 -18 -9 -18 -6 0 -15 -4 -20
-9 -5 -5 -3 -6 5 -2 6 4 12 4 12 -1 -1 -12 -30 -48 -30 -37 0 5 -5 1 -11 -9
-5 -9 -7 -22 -4 -27 3 -6 1 -10 -4 -10 -6 0 -11 -7 -11 -15 0 -8 -8 -15 -17
-15 -14 0 -15 -2 -5 -9 10 -6 9 -11 -4 -22 -15 -12 -17 -12 -9 0 5 9 4 12 -3
7 -6 -4 -8 -14 -5 -23 5 -12 3 -14 -7 -8 -8 5 -11 4 -7 -3 8 -12 -2 -44 -12
-38 -4 3 -13 -5 -21 -17 -12 -21 -12 -21 5 -7 18 15 18 14 1 -12 -17 -26 -35
-41 -20 -16 4 7 3 8 -5 4 -6 -4 -9 -12 -5 -17 3 -6 -2 -17 -12 -25 -11 -9 -13
-13 -7 -9 9 4 11 1 7 -10 -4 -9 -13 -14 -20 -11 -9 3 -11 0 -7 -11 4 -10 2
-14 -4 -10 -7 5 -9 0 -6 -11 2 -11 -3 -25 -14 -33 -17 -13 -17 -13 -3 6 14 19
14 19 -3 6 -13 -10 -15 -17 -6 -27 9 -11 8 -14 -5 -14 -9 0 -15 -5 -13 -12 1
-7 -4 -12 -12 -13 -8 0 -16 -7 -18 -15 -4 -13 -3 -13 6 0 9 12 11 12 11 1 0
-8 -8 -20 -17 -28 -10 -8 -12 -12 -5 -8 17 9 15 -3 -3 -21 -8 -9 -15 -21 -15
-27 0 -7 4 -6 10 3 6 9 10 10 10 3 0 -6 -5 -15 -10 -18 -6 -4 -8 -10 -5 -15 3
-5 2 -11 -2 -13 -5 -3 -7 -85 -6 -184 1 -121 -3 -183 -10 -192 -10 -12 -9 -13
1 -7 11 6 13 -4 10 -52 -2 -33 0 -58 4 -56 7 4 10 -12 8 -41 -1 -3 6 -12 14
-20 8 -9 13 -24 11 -35 -2 -11 0 -18 6 -15 8 6 14 -16 10 -38 -1 -5 2 -6 7 -3
9 5 32 -35 32 -55 0 -6 7 -17 15 -25 18 -18 20 -38 3 -28 -7 4 -8 3 -4 -5 4
-6 12 -9 17 -6 5 4 9 2 9 -3 0 -6 18 -40 41 -77 22 -37 41 -75 42 -85 1 -10 6
-18 12 -17 5 1 9 -6 9 -15 -1 -10 2 -16 6 -13 8 5 26 -33 22 -47 -1 -5 1 -7 6
-5 4 1 8 -1 10 -5 1 -5 11 -17 23 -29 11 -11 18 -27 15 -35 -3 -7 -2 -13 2
-11 4 1 9 -3 11 -8 3 -6 13 -18 22 -29 10 -10 16 -23 15 -30 -2 -6 -1 -8 1 -3
7 11 23 -2 23 -19 0 -8 9 -24 20 -36 11 -12 26 -34 32 -50 7 -15 17 -28 21
-28 5 0 6 -4 3 -9 -3 -5 1 -11 9 -15 8 -3 15 -12 15 -21 0 -8 9 -24 20 -35 12
-12 18 -25 15 -29 -2 -5 2 -11 10 -15 8 -3 15 -12 15 -21 0 -8 5 -15 10 -15 6
0 10 -5 10 -11 0 -6 7 -17 16 -26 8 -9 13 -22 10 -29 -3 -8 1 -14 10 -14 8 0
13 -4 10 -9 -4 -5 -3 -11 1 -13 17 -7 74 -99 68 -108 -3 -5 -1 -10 4 -10 16 0
63 -79 55 -92 -4 -6 -3 -8 4 -4 13 8 56 -60 47 -74 -4 -6 -2 -9 3 -8 6 2 11
-1 13 -7 1 -5 9 -16 16 -23 7 -8 10 -18 7 -24 -4 -6 -2 -8 4 -4 6 3 16 -7 24
-24 7 -16 16 -30 20 -30 5 0 8 -4 8 -10 0 -9 39 -72 60 -98 6 -7 8 -17 5 -22
-4 -6 -3 -10 2 -9 20 3 27 -2 13 -11 -13 -9 -13 -10 0 -10 19 0 43 -37 34 -53
-4 -7 -4 -9 1 -5 9 8 35 -15 35 -32 0 -6 -5 -8 -12 -4 -7 5 -8 3 -4 -5 5 -7
11 -10 14 -7 6 6 39 -36 33 -43 -1 -2 1 -7 6 -10 4 -3 15 -15 23 -25 13 -18
13 -19 0 -12 -8 4 -6 0 5 -9 11 -9 18 -24 17 -33 -2 -9 -1 -14 4 -10 11 11 36
-30 28 -45 -4 -6 -4 -9 1 -5 11 10 38 -29 30 -42 -4 -6 -2 -9 3 -8 6 2 22 -14
36 -35 15 -21 21 -35 14 -31 -7 4 -1 -5 14 -20 15 -15 24 -34 21 -42 -3 -8 0
-14 6 -12 6 2 21 -15 34 -37 12 -22 28 -46 35 -54 7 -7 10 -21 7 -29 -3 -9 -3
-13 1 -10 8 8 34 -14 27 -24 -2 -5 1 -8 7 -8 6 0 8 -4 5 -10 -3 -5 -3 -10 2
-10 8 0 47 -62 43 -69 -1 -2 5 -8 14 -13 9 -5 16 -14 16 -19 0 -6 -6 -7 -12
-3 -8 4 -10 3 -5 -2 5 -5 14 -9 20 -9 7 0 11 -8 11 -17 -1 -11 4 -14 14 -10
11 4 14 1 9 -12 -4 -9 -3 -15 2 -11 5 3 17 -5 26 -17 8 -13 19 -23 23 -23 4 0
6 -4 4 -10 -2 -5 0 -7 3 -3 10 10 47 -11 40 -21 -2 -5 3 -8 13 -7 9 0 16 -5
14 -12 -1 -8 2 -11 7 -8 13 8 62 -19 53 -29 -4 -5 0 -6 10 -2 9 3 24 -1 35 -8
10 -8 25 -15 34 -15 9 0 19 -6 22 -14 4 -9 14 -12 26 -9 13 3 21 1 21 -8 0 -7
3 -10 6 -6 4 3 22 0 41 -8 20 -8 55 -16 79 -17 24 0 44 -4 44 -7 0 -8 275 -5
295 3 8 3 15 0 15 -7 0 -8 3 -9 8 -1 8 13 92 35 104 28 4 -3 8 0 8 5 0 6 11
11 24 11 14 0 28 5 31 11 4 6 13 8 21 5 8 -3 14 -1 14 5 0 6 5 7 10 4 6 -3 10
-1 10 5 0 7 7 9 16 6 8 -3 13 -2 10 3 -7 11 49 32 60 23 4 -4 4 -2 1 4 -8 14
39 48 54 39 5 -4 8 -1 7 7 -2 7 3 12 10 10 8 -1 11 1 8 6 -5 8 21 36 38 39 5
1 14 12 21 25 6 13 17 22 24 20 7 -1 10 2 7 6 -3 5 6 22 21 38 15 16 25 30 22
31 -2 1 4 11 13 22 9 11 14 22 11 25 -4 3 -1 6 6 6 7 0 9 5 6 10 -3 6 -1 10 4
10 6 0 10 6 8 12 -1 7 3 12 9 11 7 -1 10 6 7 17 -4 15 0 20 13 21 11 0 14 3 7
6 -19 7 -16 23 5 23 11 0 13 3 5 8 -8 5 -9 13 -3 22 6 8 10 25 10 38 0 14 6
22 18 22 13 0 14 2 3 9 -15 9 -6 51 13 63 8 5 8 8 0 8 -11 0 -13 28 -2 45 3 6
4 20 3 33 -1 12 3 22 9 22 6 0 5 4 -3 9 -13 8 -13 12 0 27 8 10 9 15 3 11 -7
-4 -14 0 -18 8 -3 8 0 15 7 15 8 0 6 4 -3 10 -13 9 -13 10 0 10 13 0 13 2 1 9
-8 5 -12 18 -8 30 3 12 1 21 -5 21 -5 0 -6 9 -3 20 4 12 2 20 -6 20 -9 0 -8 4
1 15 10 12 9 16 -4 21 -10 4 -15 13 -12 21 3 8 1 11 -4 8 -6 -3 -10 1 -10 10
0 10 5 14 13 10 6 -4 5 -1 -3 7 -9 7 -14 22 -12 33 3 17 1 18 -8 5 -10 -12
-11 -11 -7 8 3 14 1 20 -6 15 -7 -4 -8 0 -4 11 5 11 3 15 -5 10 -8 -5 -9 -2
-5 9 4 10 2 16 -6 14 -7 -1 -12 7 -12 18 0 11 -8 21 -18 23 -13 3 -16 9 -12
23 5 13 2 19 -7 17 -7 -2 -12 3 -11 9 2 7 -2 13 -8 13 -6 0 -9 7 -6 15 4 8 -7
25 -26 41 -18 14 -25 23 -17 19 10 -4 9 -1 -2 8 -10 8 -18 21 -18 30 0 9 -8
21 -19 26 -10 6 -21 18 -25 26 -3 9 -2 13 4 10 6 -3 7 1 4 9 -3 9 -10 13 -15
10 -8 -5 -11 2 -8 22 0 3 -9 14 -20 23 -21 19 -29 37 -11 26 16 -10 11 1 -7
16 -11 10 -14 10 -9 2 4 -7 5 -13 2 -13 -3 0 -10 10 -17 21 -9 17 -8 20 3 14
7 -4 4 2 -7 12 -28 24 -54 59 -37 49 6 -4 12 -2 12 3 0 6 -7 11 -16 11 -10 0
-14 6 -11 15 4 8 1 17 -5 21 -7 5 -8 2 -3 -6 5 -9 4 -11 -3 -6 -7 4 -12 16
-12 26 0 11 -9 24 -20 30 -11 6 -17 16 -14 25 4 9 -1 18 -11 21 -9 4 -14 13
-11 20 3 8 2 13 -2 11 -4 -1 -8 2 -9 7 0 5 -8 13 -17 18 -9 5 -16 13 -16 19 0
5 -9 20 -20 32 -11 12 -18 27 -16 34 3 7 -1 13 -8 13 -8 0 -17 7 -20 16 -4 10
-2 13 7 9 6 -4 3 2 -8 12 -12 10 -27 27 -35 38 -14 19 -14 19 4 5 18 -14 18
-14 6 7 -8 12 -17 20 -21 17 -4 -2 -10 3 -13 12 -4 10 -2 13 6 8 7 -4 8 -3 4
4 -4 7 -14 12 -21 12 -9 0 -12 6 -8 17 4 10 2 14 -4 10 -6 -4 -14 0 -17 9 -4
10 -2 13 7 9 6 -4 1 2 -12 13 -14 11 -21 24 -17 31 4 6 4 11 -1 10 -20 -3 -27
2 -13 11 13 9 13 10 0 10 -9 0 -24 14 -33 30 -10 17 -15 30 -10 30 4 0 -3 7
-15 16 -15 10 -21 22 -17 32 3 9 3 13 -1 9 -10 -10 -65 75 -59 90 2 7 -3 13
-11 13 -10 0 -14 6 -11 15 4 8 1 17 -5 21 -7 5 -8 2 -3 -6 5 -9 4 -11 -3 -6
-7 4 -12 16 -12 27 0 11 -4 18 -9 15 -11 -7 -23 22 -14 36 3 6 1 8 -5 4 -10
-6 -28 30 -24 46 1 5 -1 7 -6 5 -4 -1 -8 2 -9 7 0 5 -8 13 -17 18 -9 5 -16 17
-16 27 0 10 -10 26 -22 35 -13 9 -16 14 -8 11 8 -4 5 2 -7 13 -13 11 -23 27
-23 36 0 9 -5 16 -11 16 -6 0 -8 7 -5 17 4 10 4 14 0 11 -11 -11 -47 41 -40
58 4 10 2 13 -6 8 -7 -5 -9 0 -6 14 4 12 0 26 -9 33 -11 10 -11 14 -1 20 8 6
9 9 2 9 -15 0 -24 48 -10 54 6 3 5 5 -3 5 -11 1 -11 4 -1 16 10 12 10 15 0 15
-9 0 -9 4 1 17 12 14 12 16 0 8 -11 -6 -12 -5 -5 6 9 15 10 20 12 62 1 16 6
25 12 22 6 -3 7 1 4 9 -4 9 1 18 10 22 9 3 14 9 11 14 -7 12 107 111 122 106
8 -3 12 -2 9 3 -7 11 43 33 56 25 7 -4 8 -2 4 4 -4 7 -1 12 6 13 7 0 20 2 28
4 8 2 31 7 50 10 19 3 40 8 47 10 6 2 14 1 17 -3 11 -10 36 -11 30 0 -4 7 0 7
12 0 20 -11 25 -12 50 -12 8 0 13 -4 10 -9 -3 -5 0 -9 7 -8 32 1 48 -4 42 -13
-4 -6 -3 -9 2 -8 16 4 53 -14 47 -23 -3 -5 -2 -9 3 -8 25 6 123 -72 123 -98 0
-7 5 -13 11 -13 5 0 7 -5 3 -12 -5 -7 -3 -8 5 -4 8 5 14 0 18 -13 3 -12 10
-21 15 -21 6 0 7 -7 4 -16 -3 -8 -2 -12 4 -9 11 7 32 -29 22 -40 -4 -5 -1 -5
6 -1 11 6 17 -5 13 -26 0 -5 4 -8 10 -8 6 0 8 -7 5 -16 -3 -8 -2 -12 4 -9 5 3
16 -8 25 -25 8 -16 12 -30 8 -30 -5 0 0 -5 10 -11 9 -5 17 -16 17 -23 0 -8 7
-19 15 -26 8 -7 12 -16 9 -21 -3 -5 -1 -9 5 -9 5 0 12 -8 16 -19 3 -10 14 -29
25 -41 11 -12 17 -27 13 -33 -3 -5 -2 -7 4 -4 8 5 42 -45 45 -68 0 -5 9 -16
19 -23 11 -7 19 -20 19 -28 0 -9 7 -22 15 -31 8 -8 12 -19 9 -25 -4 -6 -2 -8
3 -5 9 6 22 -11 23 -28 0 -3 9 -15 20 -27 11 -12 18 -28 16 -35 -3 -7 -1 -13
5 -13 6 0 7 -5 3 -12 -4 -7 -3 -8 4 -4 12 7 38 -32 33 -53 -1 -7 2 -10 8 -6 6
3 11 -1 11 -9 0 -9 5 -16 10 -16 6 0 10 -6 10 -13 0 -7 9 -23 21 -36 11 -12
18 -28 15 -36 -3 -8 -1 -14 5 -12 5 1 17 -11 27 -28 9 -16 23 -36 30 -43 7 -8
10 -22 7 -30 -3 -9 -3 -13 1 -9 10 9 45 -44 37 -56 -3 -6 -1 -7 4 -4 12 8 44
-53 36 -67 -3 -5 -1 -6 5 -2 11 6 38 -31 34 -46 -1 -5 3 -8 9 -8 6 0 8 -7 5
-16 -3 -8 -2 -13 3 -10 5 3 18 -10 30 -30 24 -41 26 -48 9 -38 -8 4 -10 3 -5
-2 5 -5 13 -9 18 -9 5 0 10 -4 11 -10 1 -5 10 -19 20 -30 10 -10 16 -25 13
-33 -2 -7 0 -10 5 -7 6 3 13 -2 17 -12 4 -10 13 -24 21 -32 7 -7 11 -20 8 -27
-3 -8 1 -14 10 -14 8 0 13 -4 10 -9 -4 -5 -3 -11 1 -13 19 -8 52 -68 47 -85
-5 -15 -4 -15 4 -3 9 12 13 10 21 -12 5 -14 15 -29 21 -33 5 -3 8 -10 5 -15
-3 -4 3 -11 12 -14 15 -6 15 -8 3 -16 -13 -8 -12 -10 3 -10 9 0 17 -5 17 -10
0 -6 9 -21 20 -33 11 -12 18 -28 15 -36 -3 -9 -3 -12 1 -8 10 10 66 -81 59
-94 -4 -5 -1 -8 7 -7 7 2 12 -5 12 -15 -1 -10 0 -16 4 -13 5 6 31 -24 32 -37
0 -5 -6 -5 -12 -1 -8 4 -10 3 -5 -2 5 -5 13 -9 18 -9 5 0 9 -4 8 -9 0 -5 7
-14 16 -19 14 -8 15 -11 4 -18 -12 -7 -11 -9 1 -9 17 -1 61 -64 63 -91 1 -10
4 -16 8 -13 10 6 30 -22 32 -45 1 -11 3 -18 6 -15 8 7 40 -49 34 -59 -4 -6 -1
-7 7 -2 10 6 12 4 7 -9 -4 -9 -3 -15 2 -12 5 3 20 -12 35 -34 14 -22 23 -40
19 -40 -4 0 1 -6 12 -13 10 -8 15 -19 11 -26 -4 -6 -3 -10 2 -9 14 4 64 -71
56 -84 -4 -6 -2 -8 4 -4 6 3 13 -3 17 -14 3 -11 11 -20 17 -20 6 0 6 -6 -2
-15 -11 -13 -10 -14 5 -8 14 5 17 3 12 -10 -3 -9 -3 -16 1 -14 4 1 8 -2 10 -8
2 -5 10 -14 18 -18 8 -5 12 -12 9 -18 -4 -5 -1 -9 5 -9 6 0 8 -4 5 -10 -3 -5
-1 -10 4 -10 16 0 63 -79 55 -92 -4 -7 -3 -8 4 -4 13 8 66 -70 57 -84 -3 -5 0
-12 6 -16 8 -5 9 -3 4 6 -5 9 -4 11 3 6 7 -4 12 -14 12 -22 0 -8 5 -14 11 -14
5 0 8 -4 5 -9 -3 -5 1 -11 9 -15 8 -3 15 -12 15 -20 0 -8 9 -18 20 -21 11 -3
20 -11 20 -16 0 -6 -6 -7 -12 -3 -7 4 -9 3 -5 -1 4 -5 14 -10 21 -11 8 -1 39
-20 68 -43 30 -23 60 -41 67 -41 7 0 9 -4 6 -10 -3 -5 3 -10 14 -10 12 0 21
-4 21 -10 0 -5 6 -9 13 -7 6 1 11 -4 9 -11 -2 -9 4 -12 17 -7 11 3 22 1 26 -5
3 -6 11 -7 17 -4 8 5 9 1 4 -11 -5 -15 -4 -16 9 -5 12 10 16 9 21 -5 5 -13 9
-14 15 -3 6 8 9 9 9 1 0 -6 8 -10 18 -8 9 1 21 0 26 -3 5 -3 26 -6 45 -6 20
-1 41 -5 48 -9 6 -4 14 -3 17 1 3 5 18 7 33 5 16 -3 36 -4 46 -4 31 1 47 1 60
0 6 0 24 2 40 5 18 4 27 2 27 -6 0 -9 2 -10 8 -2 4 6 30 14 59 17 29 3 57 8
63 12 5 3 10 1 10 -6 0 -8 4 -8 15 1 12 10 15 10 15 -1 0 -11 2 -11 8 -2 4 7
26 14 48 15 21 2 41 5 44 9 14 15 82 39 93 33 6 -4 9 -4 5 1 -10 11 20 38 33
29 8 -4 9 -3 5 4 -7 11 26 35 38 27 3 -3 4 -2 1 1 -5 8 34 44 47 44 5 0 7 4 4
8 -6 10 39 53 48 46 3 -2 4 -1 1 3 -6 8 15 34 24 28 4 -2 8 1 8 8 0 19 90 146
99 139 4 -4 4 -2 1 4 -3 6 8 40 25 75 l30 64 1 2421 c0 1331 -3 2426 -7 2432
-4 7 -1 12 6 12 10 0 11 2 0 8 -7 5 -10 17 -6 28 4 14 3 15 -4 6 -7 -11 -10
-11 -15 2 -4 9 -1 16 6 16 7 0 4 5 -6 11 -9 6 -15 14 -12 20 4 5 1 9 -6 9 -6
0 -9 8 -6 20 3 13 1 18 -6 13 -7 -4 -8 0 -4 11 5 11 3 15 -5 10 -8 -5 -9 -2
-5 9 3 9 3 16 -1 16 -19 -3 -23 2 -13 15 9 11 8 15 -4 20 -11 4 -14 2 -10 -7
4 -6 -1 -3 -9 8 -9 11 -14 26 -11 34 3 9 3 12 -1 9 -11 -12 -50 42 -46 64 1 4
-5 5 -13 2 -10 -4 -15 0 -15 11 0 9 -4 13 -10 10 -5 -3 -10 0 -10 8 0 8 -10
22 -22 33 -23 19 -23 19 -8 -1 12 -17 11 -17 -6 1 -12 13 -25 20 -30 16 -4 -4
-4 1 -1 10 4 12 2 15 -7 12 -8 -3 -28 8 -44 24 -17 17 -33 27 -36 24 -3 -3 -6
0 -6 6 0 6 -7 9 -17 5 -10 -4 -14 -2 -10 4 7 12 -20 27 -40 24 -7 -1 -13 3
-13 8 0 6 -7 7 -17 4 -10 -4 -14 -2 -10 4 4 7 0 10 -10 9 -10 -2 -24 4 -31 13
-8 9 -11 10 -7 4 7 -15 -11 -18 -20 -3 -3 5 -13 6 -22 3 -11 -4 -14 -3 -9 5 9
15 1 15 -23 2 -13 -6 -24 -5 -37 5 -11 8 -23 14 -29 15 -5 0 -3 -5 5 -11 12
-9 11 -10 -5 -4 -11 4 -33 8 -50 9 -16 0 -36 5 -44 10 -10 6 -12 6 -7 -2 5 -8
0 -12 -13 -12 -12 0 -21 6 -21 13 0 7 -3 8 -8 2 -9 -13 -46 -20 -38 -7 3 5 -2
9 -10 9 -8 0 -13 -5 -11 -11 3 -6 -6 -11 -18 -11 -13 0 -22 2 -20 5 2 3 -12 5
-30 5 -18 0 -32 -2 -29 -6 2 -4 -6 -9 -17 -12 -16 -4 -19 -2 -14 11 5 13 1 12
-16 -4 -14 -11 -19 -13 -14 -4 8 13 6 13 -8 1 -9 -7 -24 -11 -32 -7 -8 3 -15
1 -15 -4 0 -6 -5 -10 -11 -10 -5 0 -7 5 -4 10 9 15 -4 12 -21 -5 -9 -8 -26
-15 -39 -15 -13 0 -27 -5 -30 -11 -4 -6 -13 -8 -21 -5 -8 3 -14 1 -14 -4 0 -5
-8 -7 -17 -3 -10 3 -15 3 -11 -2 9 -9 -21 -34 -41 -35 -8 0 -20 -8 -28 -17 -8
-10 -12 -12 -8 -6 4 9 1 11 -9 7 -9 -3 -13 -11 -9 -17 4 -6 0 -8 -10 -4 -10 4
-16 2 -14 -6 1 -7 -4 -11 -11 -9 -8 1 -11 -1 -9 -5 3 -5 -18 -30 -46 -58 -27
-27 -47 -43 -42 -35 5 9 5 12 -1 7 -5 -5 -10 -13 -10 -18 -1 -5 -2 -14 -3 -20
0 -5 -5 -8 -10 -5 -5 3 -11 -4 -14 -15 -3 -12 -10 -18 -16 -14 -7 4 -8 0 -4
-11 5 -13 3 -15 -8 -9 -8 4 -11 5 -7 0 10 -11 -11 -47 -22 -40 -6 4 -7 -1 -3
-11 4 -11 3 -15 -4 -11 -7 5 -9 -1 -5 -15 3 -13 1 -19 -5 -15 -6 4 -14 0 -17
-9 -3 -8 -2 -12 4 -9 6 3 7 -1 4 -9 -3 -9 -10 -13 -15 -10 -5 3 -6 -2 -3 -10
3 -9 1 -16 -6 -16 -6 0 -8 -4 -5 -10 3 -5 2 -10 -3 -10 -6 0 -8 -10 -4 -22 3
-14 2 -19 -6 -14 -13 8 -16 -3 -12 -43 1 -16 -2 -21 -10 -16 -9 6 -9 2 -1 -14
7 -13 8 -21 2 -21 -6 0 -8 -13 -6 -30 2 -18 -1 -30 -8 -30 -8 0 -7 -3 2 -9 9
-6 12 -21 9 -45 -2 -21 0 -36 7 -36 5 0 3 -5 -5 -10 -10 -6 -11 -10 -2 -10 14
0 12 -21 -3 -32 -5 -4 -1 -8 10 -8 17 0 17 -2 5 -10 -8 -5 -10 -10 -3 -10 6 0
10 -11 8 -25 -1 -14 1 -25 5 -25 4 0 11 -7 14 -16 5 -12 2 -15 -11 -10 -17 6
-17 5 0 -8 11 -9 15 -20 11 -32 -4 -11 -3 -16 1 -11 5 4 15 -7 22 -25 10 -23
10 -33 2 -38 -7 -5 -5 -9 6 -14 9 -3 13 -10 10 -16 -3 -5 -1 -10 6 -10 6 0 9
-8 6 -20 -3 -11 0 -18 7 -17 6 1 10 -4 8 -10 -1 -7 3 -13 9 -13 5 0 8 -4 5 -9
-3 -5 1 -12 10 -15 10 -4 14 -12 10 -23 -4 -10 -4 -14 0 -10 12 11 35 -30 28
-50 -5 -15 -4 -15 5 -3 9 12 11 12 16 -2 4 -10 4 -22 0 -28 -4 -6 -1 -9 5 -8
13 3 90 -112 83 -124 -2 -5 1 -8 7 -8 6 0 8 -5 5 -10 -4 -6 -1 -9 7 -8 7 2 12
-3 10 -9 -1 -7 3 -13 10 -13 6 0 9 -3 5 -6 -3 -4 1 -13 9 -21 8 -9 12 -23 9
-31 -3 -9 -3 -13 1 -10 10 11 36 -20 28 -33 -4 -7 -3 -9 4 -5 11 6 28 -30 23
-49 -1 -5 1 -7 5 -3 7 8 54 -53 54 -70 0 -5 7 -15 15 -22 9 -7 14 -19 11 -26
-3 -8 0 -13 7 -11 7 1 11 -4 9 -10 -1 -7 3 -13 9 -13 6 0 8 -7 5 -16 -3 -8 -2
-13 3 -10 5 3 16 -5 25 -19 19 -29 20 -39 4 -29 -7 5 -8 3 -4 -5 5 -7 11 -10
14 -7 9 10 34 -33 26 -47 -4 -6 -4 -9 1 -5 6 6 55 -54 55 -68 0 -3 7 -12 16
-21 8 -9 13 -22 10 -29 -3 -8 -2 -13 2 -11 4 1 8 -2 9 -7 1 -5 5 -12 10 -15
18 -12 52 -68 46 -75 -3 -3 -2 -6 4 -6 12 0 66 -87 66 -107 0 -7 5 -9 10 -6 6
4 8 0 4 -10 -4 -10 -2 -16 6 -14 7 1 11 -6 11 -15 -1 -10 2 -15 7 -12 5 3 12
-3 16 -13 4 -10 13 -24 20 -31 7 -8 11 -17 8 -22 -3 -4 1 -10 8 -13 6 -3 21
-22 32 -43 11 -22 22 -41 25 -44 3 -3 12 -14 20 -24 13 -18 13 -19 0 -12 -8 4
-7 1 4 -8 10 -8 15 -20 11 -26 -4 -6 -1 -9 7 -8 7 2 12 -3 11 -9 -2 -7 2 -13
8 -13 6 0 8 -7 5 -16 -3 -8 -2 -12 4 -9 11 7 32 -29 22 -40 -4 -5 -2 -5 4 -2
13 8 27 -20 18 -34 -3 -5 0 -8 8 -7 7 2 12 -3 11 -9 -2 -7 1 -13 7 -13 5 0 24
-25 42 -56 18 -31 43 -72 55 -92 11 -21 19 -41 15 -47 -3 -5 -2 -7 3 -3 10 10
38 -19 30 -32 -4 -6 -3 -10 2 -9 20 3 27 -2 13 -11 -13 -8 -13 -10 2 -10 18 0
42 -56 31 -73 -3 -6 -1 -7 5 -3 7 4 13 0 13 -11 1 -10 3 -34 5 -53 1 -19 -3
-41 -9 -49 -9 -12 -9 -13 1 -7 10 6 11 1 6 -21 -4 -15 -12 -31 -18 -35 -7 -5
-6 -8 4 -8 13 -1 13 -2 -1 -13 -9 -7 -18 -16 -20 -22 -2 -5 -7 -9 -11 -8 -4 2
-5 -4 -1 -13 7 -18 -35 -66 -50 -57 -6 3 -7 1 -4 -4 4 -6 0 -16 -8 -23 -13
-11 -15 -10 -10 6 4 10 -1 7 -10 -8 -8 -15 -27 -31 -40 -34 -14 -3 -25 -11
-25 -16 0 -6 -7 -7 -16 -4 -8 3 -12 2 -9 -4 3 -6 -1 -10 -10 -10 -10 0 -13 -5
-9 -12 5 -8 2 -9 -9 -5 -10 3 -17 2 -17 -3 0 -6 -5 -10 -11 -10 -5 0 -7 6 -4
12 4 7 0 5 -8 -4 -11 -14 -16 -15 -27 -5 -10 10 -11 9 -5 -2 6 -11 2 -13 -19
-7 -14 3 -36 1 -48 -5 -18 -10 -20 -9 -14 6 5 14 4 15 -7 7 -10 -9 -17 -8 -27
1 -10 9 -11 9 -6 0 5 -9 0 -10 -24 -2 -16 6 -28 14 -25 18 2 4 -6 7 -18 7 -12
-1 -21 4 -20 11 2 7 -3 10 -11 7 -8 -3 -19 3 -26 15 -6 12 -17 21 -25 21 -8 0
-15 4 -15 9 0 5 -9 13 -20 16 -11 3 -20 11 -20 16 0 6 6 7 13 3 7 -4 9 -3 4 2
-5 5 -13 10 -18 10 -22 3 -23 5 -9 14 13 8 13 10 -1 10 -9 0 -23 8 -30 17 -9
11 -10 14 -2 9 9 -5 11 -2 7 9 -4 9 -9 13 -12 10 -8 -8 -34 34 -27 45 3 6 -1
10 -10 10 -12 0 -15 6 -11 23 3 12 3 16 0 9 -8 -18 -24 -4 -17 15 4 11 3 14
-5 9 -7 -4 -12 -1 -12 8 0 8 -6 19 -14 23 -18 10 -67 103 -60 114 3 5 -2 6
-10 3 -11 -4 -14 0 -11 15 2 12 1 20 -3 17 -4 -2 -13 2 -20 10 -10 11 -10 14
0 14 7 1 2 7 -12 15 -14 8 -19 14 -11 15 9 0 6 6 -7 18 -12 9 -22 24 -24 32
-2 8 -11 21 -20 30 -9 8 -18 22 -20 30 -2 8 -10 21 -18 30 -14 14 -14 14 0 6
8 -5 2 3 -13 18 -16 16 -26 34 -23 42 3 7 0 16 -6 20 -7 5 -8 2 -3 -6 6 -9 4
-11 -4 -6 -7 5 -10 14 -7 22 3 8 2 13 -2 11 -4 -1 -9 3 -11 8 -2 6 -11 15 -19
21 -8 6 -12 16 -8 22 4 7 1 12 -9 12 -11 0 -15 5 -11 16 4 10 2 13 -6 8 -8 -5
-9 -2 -5 9 3 9 1 19 -5 23 -7 4 -8 3 -4 -4 15 -25 -3 -10 -20 16 -17 26 -17
27 2 13 10 -8 4 -1 -13 17 -34 32 -43 48 -20 37 6 -4 1 3 -13 15 -14 12 -19
19 -12 15 6 -3 12 -1 12 4 0 6 -7 11 -16 11 -10 0 -14 6 -11 15 4 8 1 17 -5
21 -7 5 -8 2 -4 -7 4 -8 0 -5 -8 5 -9 11 -16 24 -16 29 0 6 -8 16 -17 24 -10
8 -12 12 -5 8 20 -10 14 0 -23 41 -19 21 -34 43 -32 48 2 6 -6 19 -19 28 -14
12 -21 27 -20 42 2 17 -1 23 -10 19 -9 -3 -14 2 -14 15 0 12 -6 25 -14 29 -18
11 -47 69 -38 78 4 5 2 5 -5 1 -13 -7 -37 27 -26 38 3 3 1 6 -5 6 -7 0 -12 7
-12 16 0 8 -4 13 -9 10 -5 -3 -12 1 -15 10 -4 10 -2 13 7 8 6 -4 -1 5 -16 20
-17 15 -26 33 -23 41 3 9 -1 15 -10 15 -11 0 -14 6 -10 16 4 10 2 13 -6 8 -7
-5 -9 -2 -5 9 4 11 2 14 -8 11 -10 -4 -13 0 -10 15 2 11 -1 24 -7 27 -7 5 -8
2 -4 -7 4 -8 0 -5 -8 6 -9 11 -14 25 -11 33 3 8 0 10 -7 6 -8 -5 -9 -2 -5 10
4 9 3 15 -2 12 -5 -3 -15 2 -22 11 -12 14 -12 16 1 9 8 -4 5 1 -7 11 -12 10
-24 28 -26 40 -2 12 -7 26 -12 30 -4 5 -5 1 -1 -7 4 -8 0 -6 -8 5 -9 11 -14
25 -12 32 3 7 0 12 -6 10 -6 -1 -13 4 -16 12 -3 9 0 11 8 6 9 -5 11 -4 6 4 -4
6 -11 9 -16 6 -5 -3 -14 4 -20 16 -10 17 -9 20 2 14 7 -3 0 3 -15 16 -22 17
-25 24 -15 30 10 7 9 9 -3 9 -9 0 -20 7 -23 16 -9 22 -8 26 6 18 7 -4 8 -3 4
5 -4 6 -12 9 -17 6 -5 -4 -12 2 -16 12 -4 10 -10 20 -15 23 -4 3 -9 16 -11 28
-2 12 -7 25 -12 29 -4 5 -5 1 -1 -7 5 -8 -3 -1 -17 15 -14 17 -23 32 -21 35 3
2 9 -2 14 -10 6 -8 10 -10 10 -4 0 16 -25 35 -35 26 -4 -4 -5 3 -2 16 3 12 2
20 -3 17 -9 -6 -27 14 -32 35 -2 8 -10 21 -18 28 -13 12 -13 13 0 7 8 -4 4 3
-10 15 -14 12 -18 19 -10 15 8 -4 6 1 -4 9 -11 9 -16 16 -11 16 5 0 1 6 -10
13 -10 8 -15 19 -11 26 4 7 2 10 -5 9 -6 -2 -14 3 -17 11 -3 9 0 11 8 6 9 -6
11 -4 6 4 -5 7 -10 10 -13 7 -8 -8 -33 21 -33 39 0 9 -4 14 -9 11 -5 -3 -8 2
-7 12 0 10 -5 16 -13 14 -8 -2 -11 3 -8 11 3 7 -4 19 -14 25 -10 7 -19 21 -19
32 0 11 -5 20 -11 20 -5 0 -7 5 -4 10 3 6 -2 10 -12 11 -12 0 -13 2 -5 6 10 4
8 9 -7 20 -22 15 -30 40 -9 27 7 -4 8 -3 4 5 -4 6 -11 9 -16 6 -11 -7 -33 32
-26 44 3 5 -2 15 -12 22 -16 13 -16 13 -2 -5 8 -11 10 -17 3 -13 -6 4 -25 31
-43 60 -17 28 -22 41 -10 28 11 -13 20 -19 20 -14 0 5 -14 22 -30 37 -17 15
-28 32 -24 38 4 7 3 8 -4 4 -7 -4 -12 -2 -12 3 0 18 -4 25 -25 46 -21 20 -21
20 0 5 12 -9 8 -1 -10 20 -16 19 -33 36 -37 38 -5 2 -8 8 -8 13 0 6 5 7 12 3
7 -4 8 -3 4 4 -4 7 -15 12 -24 12 -15 0 -15 2 -2 10 13 8 12 10 -3 10 -10 0
-15 5 -12 10 3 6 2 10 -3 10 -5 0 -17 12 -27 26 -9 15 -12 23 -6 20 6 -4 11
-2 11 3 0 6 -7 11 -16 11 -10 0 -14 6 -11 15 4 8 1 17 -5 21 -7 5 -8 2 -3 -6
5 -9 4 -11 -3 -6 -7 4 -12 12 -12 17 0 5 -9 19 -20 31 -11 12 -20 28 -20 35 0
7 -4 13 -10 13 -5 0 -10 6 -10 14 0 7 -8 20 -17 27 -17 13 -17 13 -3 -6 14
-19 14 -19 -3 -6 -10 8 -16 20 -13 27 3 7 0 16 -6 20 -7 4 -8 3 -4 -4 4 -7 2
-12 -3 -12 -6 0 -16 9 -23 20 -7 11 -18 20 -25 20 -6 0 -15 5 -19 12 -5 7 -3
8 6 3 8 -5 11 -4 6 3 -4 6 -14 8 -23 5 -11 -4 -14 -3 -9 5 5 8 0 12 -14 12
-12 0 -18 4 -15 10 4 6 -1 7 -11 3 -13 -5 -15 -3 -9 7 6 9 4 11 -4 5 -7 -4
-23 3 -38 16 -15 13 -23 18 -19 12 4 -7 2 -13 -3 -13 -6 0 -11 4 -11 10 0 5
-7 6 -17 3 -10 -4 -14 -2 -10 4 4 6 0 14 -9 17 -8 3 -12 2 -9 -4 3 -6 2 -10
-3 -10 -6 0 -12 6 -15 14 -3 9 -15 12 -31 9 -17 -4 -26 -1 -26 7 0 8 -9 10
-26 6 -19 -5 -30 -2 -41 11 -8 10 -12 12 -8 6 4 -9 -1 -13 -15 -13 -14 0 -19
4 -14 13 5 7 0 6 -11 -3 -10 -8 -16 -10 -12 -4 4 7 0 14 -8 17 -10 4 -12 1 -8
-11 5 -14 4 -15 -8 -6 -8 6 -26 10 -41 9 -16 -1 -28 2 -28 7 0 4 -5 8 -11 8
-5 0 -8 -4 -5 -9 3 -5 -5 -8 -19 -8 -14 0 -23 3 -20 7 2 3 -2 7 -10 7 -8 0
-12 -4 -9 -9 3 -4 1 -8 -5 -8 -5 0 -13 5 -16 10 -8 13 -22 13 -30 0z m-545
-294 c0 -2 -8 -10 -17 -17 -16 -13 -17 -12 -4 4 13 16 21 21 21 13z m1265
-4436 c3 -5 1 -10 -4 -10 -6 0 -11 5 -11 10 0 6 2 10 4 10 3 0 8 -4 11 -10z"/>
<path d="M4504 5798 l-19 -23 23 19 c21 18 27 26 19 26 -2 0 -12 -10 -23 -22z"/>
<path d="M3400 5081 c0 -6 4 -13 10 -16 6 -3 7 1 4 9 -7 18 -14 21 -14 7z"/>
<path d="M646 4123 c-6 -14 -5 -15 5 -6 7 7 10 15 7 18 -3 3 -9 -2 -12 -12z"/>
<path d="M4200 3796 c0 -2 8 -10 18 -17 15 -13 16 -12 3 4 -13 16 -21 21 -21
13z"/>
<path d="M4240 3736 c0 -2 8 -10 18 -17 15 -13 16 -12 3 4 -13 16 -21 21 -21
13z"/>
<path d="M4775 2890 c3 -5 8 -10 11 -10 2 0 4 5 4 10 0 6 -5 10 -11 10 -5 0
-7 -4 -4 -10z"/>
<path d="M5499 2673 c-13 -16 -12 -17 4 -4 9 7 17 15 17 17 0 8 -8 3 -21 -13z"/>
<path d="M5405 2600 c-3 -6 1 -7 9 -4 18 7 21 14 7 14 -6 0 -13 -4 -16 -10z"/>
<path d="M2281 2343 c7 -12 15 -20 18 -17 3 2 -3 12 -13 22 -17 16 -18 16 -5
-5z"/>
<path d="M2560 1896 c0 -2 8 -10 18 -17 15 -13 16 -12 3 4 -13 16 -21 21 -21
13z"/>
</g>
</svg>
